<?xml version="1.0" ?>
<svg xmlns="http://www.w3.org/2000/svg" width="1200" height="900" viewBox="0 0 1200 900">
  <defs>
    <radialGradient id="coreGlow" cx="50%" cy="50%" r="60%">
      <stop offset="0%" style="stop-color:rgb(107,212,252);stop-opacity:0.55"/>
      <stop offset="100%" style="stop-color:rgb(5,6,13);stop-opacity:0"/>
    </radialGradient>
  </defs>
  <circle cx="600" cy="450" r="200" fill="url(#coreGlow)"/>
  <circle cx="600" cy="450" r="120" fill="none" stroke="rgb(123,139,255)" stroke-width="3"/>
  <circle cx="600" cy="450" r="60" fill="none" stroke="rgb(107,212,252)" stroke-width="3"/>
  <g transform="rotate(0,600,450)">
    <ellipse cx="600" cy="450" rx="280" ry="145" fill="none" stroke="rgb(255,200,87)" stroke-width="1" stroke-opacity="0.7"/>
  </g>
  <g transform="rotate(12,600,450)">
    <ellipse cx="600" cy="450" rx="340" ry="176" fill="none" stroke="rgb(255,200,87)" stroke-width="1" stroke-opacity="0.7"/>
  </g>
  <g transform="rotate(-10,600,450)">
    <ellipse cx="600" cy="450" rx="400" ry="208" fill="none" stroke="rgb(255,200,87)" stroke-width="1" stroke-opacity="0.7"/>
  </g>
  <g transform="translate(940.0,450.0)">
    <circle cx="0" cy="0" r="20" fill="none" stroke="rgb(123,139,255)" stroke-width="2" stroke-opacity="0.9"/>
    <path d="M -10 0 A 10 10 0 1 0 10 0 A 10 10 0 1 0 -10 0" fill="none" stroke="rgb(107,212,252)" stroke-width="2"/>
  </g>
  <g transform="translate(894.4486372867092,538.4)">
    <circle cx="0" cy="0" r="20" fill="none" stroke="rgb(123,139,255)" stroke-width="2" stroke-opacity="0.9"/>
    <path d="M -10 0 A 10 10 0 1 0 10 0 A 10 10 0 1 0 -10 0" fill="none" stroke="rgb(107,212,252)" stroke-width="2"/>
  </g>
  <g transform="translate(770.0,603.1132913890888)">
    <circle cx="0" cy="0" r="20" fill="none" stroke="rgb(123,139,255)" stroke-width="2" stroke-opacity="0.9"/>
    <path d="M 0 -12 L 10 6 L -10 6 Z" fill="none" stroke="rgb(107,212,252)" stroke-width="2"/>
  </g>
  <g transform="translate(600.0,626.8)">
    <circle cx="0" cy="0" r="20" fill="none" stroke="rgb(123,139,255)" stroke-width="2" stroke-opacity="0.9"/>
    <path d="M 0 -12 L 10 6 L -10 6 Z" fill="none" stroke="rgb(107,212,252)" stroke-width="2"/>
  </g>
  <g transform="translate(430.0000000000001,603.1132913890888)">
    <circle cx="0" cy="0" r="20" fill="none" stroke="rgb(123,139,255)" stroke-width="2" stroke-opacity="0.9"/>
    <path d="M -10 0 L 10 0 M 0 -10 L 0 10" fill="none" stroke="rgb(107,212,252)" stroke-width="2"/>
  </g>
  <g transform="translate(305.5513627132908,538.4)">
    <circle cx="0" cy="0" r="20" fill="none" stroke="rgb(123,139,255)" stroke-width="2" stroke-opacity="0.9"/>
    <path d="M -9 -9 L 9 9 M -9 9 L 9 -9" fill="none" stroke="rgb(107,212,252)" stroke-width="2"/>
  </g>
  <g transform="translate(260.0,450.0)">
    <circle cx="0" cy="0" r="20" fill="none" stroke="rgb(123,139,255)" stroke-width="2" stroke-opacity="0.9"/>
    <path d="M -12 8 L -12 -8 L 12 -8 L 12 8 Z" fill="none" stroke="rgb(107,212,252)" stroke-width="2"/>
  </g>
  <g transform="translate(305.55136271329087,361.59999999999997)">
    <circle cx="0" cy="0" r="20" fill="none" stroke="rgb(123,139,255)" stroke-width="2" stroke-opacity="0.9"/>
    <path d="M 0 -12 L 10 6 L -10 6 Z" fill="none" stroke="rgb(107,212,252)" stroke-width="2"/>
  </g>
  <g transform="translate(429.9999999999999,296.8867086109113)">
    <circle cx="0" cy="0" r="20" fill="none" stroke="rgb(123,139,255)" stroke-width="2" stroke-opacity="0.9"/>
    <path d="M -10 0 A 10 10 0 1 0 10 0 A 10 10 0 1 0 -10 0" fill="none" stroke="rgb(107,212,252)" stroke-width="2"/>
  </g>
  <g transform="translate(599.9999999999999,273.2)">
    <circle cx="0" cy="0" r="20" fill="none" stroke="rgb(123,139,255)" stroke-width="2" stroke-opacity="0.9"/>
    <path d="M -9 -9 L 9 9 M -9 9 L 9 -9" fill="none" stroke="rgb(107,212,252)" stroke-width="2"/>
  </g>
  <g transform="translate(770.0,296.8867086109112)">
    <circle cx="0" cy="0" r="20" fill="none" stroke="rgb(123,139,255)" stroke-width="2" stroke-opacity="0.9"/>
    <path d="M -9 -9 L 9 9 M -9 9 L 9 -9" fill="none" stroke="rgb(107,212,252)" stroke-width="2"/>
  </g>
  <g transform="translate(894.4486372867091,361.5999999999999)">
    <circle cx="0" cy="0" r="20" fill="none" stroke="rgb(123,139,255)" stroke-width="2" stroke-opacity="0.9"/>
    <path d="M -9 -9 L 9 9 M -9 9 L 9 -9" fill="none" stroke="rgb(107,212,252)" stroke-width="2"/>
  </g>
</svg>
